<?xml version="1.0" encoding="UTF-8"?>
<!-- Generated by Pixelmator Pro 3.3.2 -->
<svg width="764" height="621" viewBox="0 0 764 621" xmlns="http://www.w3.org/2000/svg" xmlns:xlink="http://www.w3.org/1999/xlink">
    <path id="Path" fill="none" stroke="#AAABB8" stroke-width="30" stroke-linecap="round" d="M 206 594 L 204.412109 293 L 203 25 L 312 25 L 312 272 L 312 594 L 206 594 Z M 312 272 L 562 25 L 694 25 L 425 293 L 722 594 L 593 594 L 397 398 L 312 272 Z M 87 488 C 70.983772 488 58 475.016235 58 459 C 58 442.983765 70.983772 430 87 430 C 103.016228 430 116 442.983765 116 459 C 116 475.016235 103.016228 488 87 488 Z M 58 322 C 41.983772 322 29 309.016205 29 293 C 29 276.983795 41.983772 264 58 264 C 74.016228 264 87 276.983795 87 293 C 87 309.016205 74.016228 322 58 322 Z M 693 322 C 676.983765 322 664 309.016174 664 293 C 664 276.983826 676.983765 264 693 264 C 709.016235 264 722 276.983826 722 293 C 722 309.016174 709.016235 322 693 322 Z M 87 194 C 70.983757 194 58 181.016235 58 165 C 58 148.983765 70.983757 136 87 136 C 103.016243 136 116 148.983765 116 165 C 116 181.016235 103.016243 194 87 194 Z"/>
</svg>
