<?xml version="1.0" encoding="UTF-8"?>
<!-- Generated by Pixelmator Pro 3.3.2 -->
<svg width="764" height="621" viewBox="0 0 764 621" xmlns="http://www.w3.org/2000/svg" xmlns:xlink="http://www.w3.org/1999/xlink">
    <g id="Group">
        <g id="g1">
            <path id="Path" fill="none" stroke="#2E9CCA" stroke-width="26.942003" stroke-linecap="round" d="M 210.958664 178.317749 L 132.024185 178.35965 C 128.659668 189.172302 118.587524 197.035736 106.664063 197.067261 C 91.957474 197.106201 80.003708 185.215485 79.964798 170.508881 C 79.925888 155.802338 91.816582 143.848541 106.523178 143.809631 C 118.446152 143.778107 128.558655 151.588806 131.980743 162.382813 L 210.916397 162.340942 Z"/>
            <path id="Path-copy" fill="none" stroke="#2E9CCA" stroke-width="26.942003" stroke-linecap="round" d="M 210.958664 428.878357 L 132.024185 428.920288 C 128.659668 439.732941 118.587524 447.596375 106.664063 447.62793 C 91.957474 447.666809 80.003708 435.776123 79.964798 421.069519 C 79.925888 406.362976 91.816582 394.40918 106.523178 394.370239 C 118.446152 394.338745 128.558655 402.149445 131.980743 412.943451 L 210.916397 412.90155 Z"/>
        </g>
        <g id="g2">
            <path id="Path-copy-3" fill="none" stroke="#2E9CCA" stroke-width="26.942003" stroke-linecap="round" d="M 602.660828 304.248657 L 626.81311 304.162781 C 630.234802 314.957458 640.34845 322.767487 652.271851 322.735962 C 666.978516 322.697052 678.869141 310.743286 678.830261 296.036682 C 678.791382 281.330109 666.837585 269.439392 652.130981 269.478302 C 640.208008 269.509857 630.136963 277.373962 626.772034 288.185944 L 602.618591 288.271851 Z"/>
            <path id="Path-copy-2" fill="none" stroke="#2E9CCA" stroke-width="26.942003" stroke-linecap="round" d="M 254.065918 304.047089 L 108.674446 304.088989 C 105.309937 314.901642 95.237785 322.765076 83.314323 322.796631 C 68.607735 322.835541 56.653973 310.944855 56.615059 296.23822 C 56.576153 281.531677 68.466843 269.577881 83.173439 269.538971 C 95.09642 269.507446 105.208923 277.318146 108.631004 288.112152 L 254.023651 288.070282 Z"/>
        </g>
        <g id="g3">
            <path id="Line" fill="none" stroke="#2E9CCA" stroke-width="40.413006" stroke-linecap="round" d="M 211.107193 55 L 312.588745 55 L 312.588745 267.841827 L 535.309326 55 L 653.854126 55 L 412.27417 296.579956 L 679 566 L 562.251343 566 L 386.230225 389.978912"/>
            <path id="path1" fill="none" stroke="#2E9CCA" stroke-width="40.413006" stroke-linecap="round" d="M 211.107193 566 L 312.588745 566 L 312.588745 55"/>
        </g>
    </g>
</svg>
