<?xml version="1.0" encoding="UTF-8"?>
<!-- Generated by Pixelmator Pro 3.3.2 -->
<svg width="1080" height="1080" viewBox="0 0 1080 1080" xmlns="http://www.w3.org/2000/svg" xmlns:xlink="http://www.w3.org/1999/xlink">
    <path id="kortex-capital" fill="#464866" fill-rule="evenodd" stroke="none" d="M 152.173828 762.109375 C 137.860504 762.109375 124.640366 758.681519 112.511719 751.826172 C 100.383064 744.970825 90.738693 735.366455 83.582031 723.011719 C 76.425369 710.656982 72.847656 696.569946 72.847656 680.75 C 72.847656 665.532593 76.389374 651.709351 83.470703 639.279297 C 90.552032 626.849243 100.118561 617.131042 112.171875 610.125 C 124.225197 603.118958 137.559174 599.615234 152.173828 599.615234 C 160.61113 599.615234 168.861237 600.821777 176.921875 603.232422 C 184.982498 605.643066 192.25177 609.032959 198.730469 613.402344 C 200.990479 614.758301 202.119141 616.64209 202.119141 619.052734 C 202.119141 620.408752 201.591782 621.914917 200.537109 623.572266 C 199.181107 625.229614 197.449188 626.058594 195.339844 626.058594 C 194.134506 626.058594 192.929947 625.68103 191.724609 624.927734 C 179.671295 616.942383 166.487167 612.949219 152.173828 612.949219 C 139.969849 612.949219 128.93309 615.811768 119.064453 621.537109 C 109.19577 627.262451 101.437096 635.286743 95.787109 645.607422 C 90.137115 655.928101 87.3125 667.641968 87.3125 680.75 C 87.3125 694.159424 90.175064 706.025024 95.900391 716.345703 C 101.62571 726.666382 109.42234 734.650757 119.291016 740.300781 C 129.159653 745.950806 140.120514 748.775391 152.173828 748.775391 C 166.487167 748.775391 179.595398 744.858154 191.498047 737.023438 C 192.703384 736.270142 193.983841 735.894531 195.339844 735.894531 C 197.449188 735.894531 199.181107 736.797485 200.537109 738.605469 C 201.591782 739.810791 202.119141 741.243042 202.119141 742.900391 C 202.119141 745.311035 201.064423 747.118896 198.955078 748.324219 C 193.079056 752.241577 185.847733 755.517578 177.259766 758.154297 C 168.671799 760.791016 160.309799 762.109375 152.173828 762.109375 Z M 233.986328 760.076172 C 231.876999 760.076172 230.294907 759.548828 229.240234 758.494141 C 228.185562 757.439453 227.582306 756.007202 227.431641 754.199219 L 227.431641 753.521484 C 227.431641 752.617432 227.507538 751.940308 227.658203 751.488281 L 287.322266 605.492188 C 288.527618 602.478821 290.786896 600.972656 294.101563 600.972656 C 295.608246 600.972656 296.926636 601.386169 298.056641 602.214844 C 299.186646 603.043518 300.053589 604.136169 300.65625 605.492188 L 360.09375 750.810547 C 360.395081 752.015869 360.546875 752.918823 360.546875 753.521484 C 360.546875 755.480164 359.867737 757.062256 358.511719 758.267578 C 357.155731 759.4729 355.573639 760.076172 353.765625 760.076172 C 352.258972 760.076172 350.940552 759.660706 349.810547 758.832031 C 348.680542 758.003357 347.815552 756.912659 347.212891 755.556641 L 330.261719 714.197266 L 256.8125 714.197266 L 240.087891 755.556641 C 238.882553 758.569946 236.849014 760.076172 233.986328 760.076172 Z M 741.808594 760.076172 C 739.69928 760.076172 738.117188 759.548828 737.0625 758.494141 C 736.007813 757.439453 735.404541 756.007202 735.253906 754.199219 L 735.253906 753.521484 C 735.253906 752.617432 735.329834 751.940308 735.480469 751.488281 L 795.144531 605.492188 C 796.349915 602.478821 798.609131 600.972656 801.923828 600.972656 C 803.430481 600.972656 804.748901 601.386169 805.878906 602.214844 C 807.008911 603.043518 807.875793 604.136169 808.478516 605.492188 L 867.916016 750.810547 C 868.217346 752.015869 868.367188 752.918823 868.367188 753.521484 C 868.367188 755.480164 867.690002 757.062256 866.333984 758.267578 C 864.977966 759.4729 863.395874 760.076172 861.587891 760.076172 C 860.081177 760.076172 858.762817 759.660706 857.632813 758.832031 C 856.502808 758.003357 855.635864 756.912659 855.033203 755.556641 L 838.083984 714.197266 L 764.634766 714.197266 L 747.910156 755.556641 C 746.704834 758.569946 744.671265 760.076172 741.808594 760.076172 Z M 406.423828 759.849609 C 404.465149 759.849609 402.845123 759.210388 401.564453 757.929688 C 400.283783 756.649048 399.644531 755.028992 399.644531 753.070313 L 399.644531 608.429688 C 399.644531 606.471008 400.283783 604.850952 401.564453 603.570313 C 402.845123 602.289612 404.465149 601.650391 406.423828 601.650391 L 459.986328 601.650391 C 468.273041 601.650391 475.730011 603.570068 482.359375 607.412109 C 488.98877 611.25415 494.150452 616.603638 497.841797 623.458984 C 501.533142 630.314331 503.378906 638.035034 503.378906 646.623047 C 503.378906 655.21106 501.533142 663.047546 497.841797 670.128906 C 494.150452 677.210327 488.98877 682.783569 482.359375 686.851563 C 475.730011 690.919556 468.273041 692.953125 459.986328 692.953125 L 413.203125 692.953125 L 413.203125 753.070313 C 413.203125 755.028992 412.563873 756.649048 411.283203 757.929688 C 410.002533 759.210388 408.382507 759.849609 406.423828 759.849609 Z M 552.646484 759.849609 C 550.53717 759.849609 548.841248 759.210388 547.560547 757.929688 C 546.279907 756.649048 545.640625 754.953125 545.640625 752.84375 L 545.640625 608.65625 C 545.640625 606.546875 546.31781 604.850952 547.673828 603.570313 C 549.029846 602.289612 550.761719 601.650391 552.871094 601.650391 C 554.829773 601.650391 556.487732 602.327637 557.84375 603.683594 C 559.199768 605.039612 559.878906 606.697571 559.878906 608.65625 L 559.878906 752.84375 C 559.728271 754.802429 558.973206 756.460388 557.617188 757.816406 C 556.261169 759.172363 554.605164 759.849609 552.646484 759.849609 Z M 660.447266 759.849609 C 658.337952 759.849609 656.643982 759.210388 655.363281 757.929688 C 654.082642 756.649048 653.441406 755.028992 653.441406 753.070313 L 653.441406 614.53125 L 606.660156 614.53125 C 604.701477 614.53125 603.081421 613.929932 601.800781 612.724609 C 600.520081 611.519287 599.880859 609.937195 599.880859 607.978516 C 599.880859 606.170532 600.520081 604.662354 601.800781 603.457031 C 603.081421 602.251709 604.701477 601.650391 606.660156 601.650391 L 714.236328 601.650391 C 716.195007 601.650391 717.815063 602.251709 719.095703 603.457031 C 720.376404 604.662354 721.015625 606.244446 721.015625 608.203125 C 721.015625 610.161804 720.376404 611.707886 719.095703 612.837891 C 717.815063 613.967896 716.195007 614.53125 714.236328 614.53125 L 667.453125 614.53125 L 667.453125 753.070313 C 667.453125 755.028992 666.77594 756.649048 665.419922 757.929688 C 664.063904 759.210388 662.405945 759.849609 660.447266 759.849609 Z M 914.246094 759.849609 C 912.287476 759.849609 910.667358 759.210388 909.386719 757.929688 C 908.106018 756.649048 907.466797 755.028992 907.466797 753.070313 L 907.466797 608.429688 C 907.466797 606.471008 908.143982 604.850952 909.5 603.570313 C 910.856018 602.289612 912.587952 601.650391 914.697266 601.650391 C 916.655945 601.650391 918.313904 602.289612 919.669922 603.570313 C 921.02594 604.850952 921.703125 606.471008 921.703125 608.429688 L 921.703125 746.515625 L 994.927734 746.515625 C 996.886414 746.515625 998.50647 747.118896 999.787109 748.324219 C 1001.06781 749.529541 1001.707031 751.111633 1001.707031 753.070313 C 1001.707031 755.028992 1001.06781 756.649048 999.787109 757.929688 C 998.50647 759.210388 996.886414 759.849609 994.927734 759.849609 L 914.246094 759.849609 Z M 262.009766 700.863281 L 324.837891 700.863281 L 293.197266 623.572266 L 262.009766 700.863281 Z M 769.832031 700.863281 L 832.660156 700.863281 L 801.019531 623.572266 L 769.832031 700.863281 Z M 413.203125 679.845703 L 459.986328 679.845703 C 468.725037 679.845703 475.806427 676.681519 481.230469 670.353516 C 486.65448 664.025513 489.365234 656.115112 489.365234 646.623047 C 489.365234 637.281677 486.65448 629.674866 481.230469 623.798828 C 475.806427 617.922791 468.725037 614.984375 459.986328 614.984375 L 413.203125 614.984375 L 413.203125 679.845703 Z M 305.628906 493.259766 C 291.014191 493.259766 277.980011 489.756042 266.529297 482.75 C 255.078598 475.744019 246.115417 466.065674 239.636719 453.710938 C 233.15802 441.356201 229.917969 427.419128 229.917969 411.900391 C 229.917969 396.230957 233.15802 382.218018 239.636719 369.863281 C 246.115417 357.508545 255.078598 347.866272 266.529297 340.935547 C 277.980011 334.004883 291.014191 330.539063 305.628906 330.539063 C 320.243652 330.539063 333.275818 334.004883 344.726563 340.935547 C 356.177277 347.866272 365.140442 357.508545 371.619141 369.863281 C 378.097839 382.218018 381.337891 396.230957 381.337891 411.900391 C 381.337891 427.419128 378.097839 441.356201 371.619141 453.710938 C 365.140442 466.065674 356.177277 475.744019 344.726563 482.75 C 333.275818 489.756042 320.243652 493.259766 305.628906 493.259766 Z M 196.244141 491.904297 C 194.285461 491.904297 192.627487 491.075256 191.271484 489.417969 L 128.21875 410.091797 L 97.482422 439.019531 L 97.482422 483.994141 C 97.331749 486.103455 96.578667 487.797485 95.222656 489.078125 C 93.866646 490.358826 92.208679 491 90.25 491 C 88.140656 491 86.444733 490.358826 85.164063 489.078125 C 83.883385 487.797485 83.244141 486.103455 83.244141 483.994141 L 83.244141 339.806641 C 83.244141 337.697266 83.921333 336.001343 85.277344 334.720703 C 86.633354 333.440002 88.367218 332.800781 90.476563 332.800781 C 92.585907 332.800781 94.279877 333.440002 95.560547 334.720703 C 96.841225 336.001343 97.482422 337.697266 97.482422 339.806641 L 97.482422 421.84375 L 188.785156 335.511719 C 190.141174 334.005005 191.799133 333.251953 193.757813 333.251953 C 195.565826 333.251953 197.10994 333.929138 198.390625 335.285156 C 199.671295 336.641174 200.3125 338.149292 200.3125 339.806641 C 200.3125 341.614624 199.633347 343.196716 198.277344 344.552734 L 139.066406 399.921875 L 202.345703 479.925781 C 203.400375 481.432434 203.927734 483.014526 203.927734 484.671875 C 203.927734 486.931885 203.136703 488.701782 201.554688 489.982422 C 199.972687 491.263123 198.20282 491.904297 196.244141 491.904297 Z M 864.300781 491.904297 C 862.492798 491.904297 861.022583 491.263123 859.892578 489.982422 C 858.762573 488.701782 858.197266 487.309387 858.197266 485.802734 C 858.197266 484.296082 858.724609 482.787964 859.779297 481.28125 L 910.630859 412.125 L 859.554688 342.970703 C 858.5 341.765381 857.972656 340.409058 857.972656 338.902344 C 857.972656 337.09436 858.687805 335.512268 860.119141 334.15625 C 861.550476 332.800232 863.170471 332.121094 864.978516 332.121094 C 867.238525 332.121094 869.122253 333.026001 870.628906 334.833984 L 919.21875 401.052734 L 967.582031 335.060547 C 969.23938 333.101868 971.04718 332.121094 973.005859 332.121094 C 974.813904 332.121094 976.358032 332.686401 977.638672 333.816406 C 978.919373 334.946411 979.560547 336.340698 979.560547 337.998047 C 979.560547 339.20343 979.033142 340.63562 977.978516 342.292969 L 927.128906 411.673828 L 977.978516 480.830078 C 979.033142 482.336731 979.560547 483.693115 979.560547 484.898438 C 979.560547 487.007751 978.843445 488.701782 977.412109 489.982422 C 975.980774 491.263123 974.362671 491.904297 972.554688 491.904297 C 970.294678 491.904297 968.486877 490.925476 967.130859 488.966797 L 918.314453 422.748047 L 869.724609 488.740234 C 868.368591 490.849609 866.560791 491.904297 864.300781 491.904297 Z M 432.414063 491 C 430.304718 491 428.496918 490.358826 426.990234 489.078125 C 425.483582 487.797485 424.730469 486.179382 424.730469 484.220703 L 424.730469 339.580078 C 424.730469 337.621399 425.36972 336.001343 426.650391 334.720703 C 427.931061 333.440002 429.551086 332.800781 431.509766 332.800781 L 492.529297 332.800781 C 501.11734 332.800781 508.802032 334.646545 515.582031 338.337891 C 522.362122 342.029297 527.673584 347.113098 531.515625 353.591797 C 535.357605 360.070496 537.277344 367.377625 537.277344 375.513672 C 537.277344 385.156433 534.754395 393.63208 529.707031 400.939453 C 524.659729 408.246826 518.067688 413.256714 509.931641 415.96875 C 516.560974 418.53009 521.984436 422.86084 526.203125 428.962891 C 530.421814 435.06488 532.607178 442.485901 532.757813 451.224609 C 532.908508 460.565979 533.549683 467.120056 534.679688 470.886719 C 535.809692 474.653442 537.655457 477.290161 540.216797 478.796875 C 542.476807 480.303528 543.605469 482.185303 543.605469 484.445313 C 543.605469 485.198669 543.303833 486.179443 542.701172 487.384766 C 542.09845 488.439453 541.271484 489.266479 540.216797 489.869141 C 539.162109 490.471802 538.031494 490.773438 536.826172 490.773438 C 535.319519 490.773438 534.039063 490.471802 532.984375 489.869141 C 528.765686 487.458496 525.375793 483.54126 522.814453 478.117188 C 520.253052 472.693176 518.972656 464.031616 518.972656 452.128906 C 518.972656 441.582214 516.034241 434.161194 510.158203 429.867188 C 504.282196 425.573181 497.276642 423.425781 489.140625 423.425781 L 438.96875 423.425781 L 438.96875 484.220703 C 438.96875 486.179382 438.365479 487.797485 437.160156 489.078125 C 435.954803 490.358826 434.372742 491 432.414063 491 Z M 631.068359 491 C 628.959045 491 627.263123 490.358826 625.982422 489.078125 C 624.701782 487.797485 624.0625 486.179382 624.0625 484.220703 L 624.0625 345.681641 L 577.279297 345.681641 C 575.320618 345.681641 573.702515 345.080322 572.421875 343.875 C 571.141174 342.669617 570.5 341.087585 570.5 339.128906 C 570.5 337.320923 571.141174 335.812805 572.421875 334.607422 C 573.702515 333.4021 575.320618 332.800781 577.279297 332.800781 L 684.855469 332.800781 C 686.814148 332.800781 688.434143 333.4021 689.714844 334.607422 C 690.995483 335.812805 691.636719 337.394836 691.636719 339.353516 C 691.636719 341.312195 690.995483 342.856323 689.714844 343.986328 C 688.434143 345.116333 686.814148 345.681641 684.855469 345.681641 L 638.074219 345.681641 L 638.074219 484.220703 C 638.074219 486.179382 637.395081 487.797485 636.039063 489.078125 C 634.683105 490.358826 633.027039 491 631.068359 491 Z M 738.644531 491 C 736.685852 491 735.065857 490.358826 733.785156 489.078125 C 732.504517 487.797485 731.863281 486.179382 731.863281 484.220703 L 731.863281 339.580078 C 731.863281 337.621399 732.504517 336.001343 733.785156 334.720703 C 735.065857 333.440002 736.685852 332.800781 738.644531 332.800781 L 821.585938 332.800781 C 823.544617 332.800781 825.164612 333.440002 826.445313 334.720703 C 827.725952 336.001343 828.365234 337.621399 828.365234 339.580078 C 828.365234 341.538757 827.725952 343.12085 826.445313 344.326172 C 825.164612 345.531494 823.544617 346.134766 821.585938 346.134766 L 746.101563 346.134766 L 746.101563 402.859375 L 811.416016 402.859375 C 813.374695 402.859375 814.99469 403.500549 816.275391 404.78125 C 817.55603 406.06189 818.195313 407.681946 818.195313 409.640625 C 818.195313 411.599304 817.55603 413.181396 816.275391 414.386719 C 814.99469 415.592102 813.374695 416.193359 811.416016 416.193359 L 746.101563 416.193359 L 746.101563 477.666016 L 821.585938 477.666016 C 823.544617 477.666016 825.164612 478.343201 826.445313 479.699219 C 827.725952 481.055237 828.365234 482.637329 828.365234 484.445313 C 828.365234 486.403992 827.725952 487.986023 826.445313 489.191406 C 825.164612 490.396729 823.544617 491 821.585938 491 L 738.644531 491 Z M 305.628906 479.699219 C 317.531647 479.699219 328.114807 476.83667 337.380859 471.111328 C 346.646881 465.385986 353.878143 457.363647 359.076172 447.042969 C 364.2742 436.722229 366.873047 425.008423 366.873047 411.900391 C 366.873047 398.792297 364.2742 387.078491 359.076172 376.757813 C 353.878143 366.437073 346.646881 358.412903 337.380859 352.6875 C 328.114807 346.962158 317.531647 344.099609 305.628906 344.099609 C 293.726196 344.099609 283.141052 346.962158 273.875 352.6875 C 264.608948 358.412903 257.377686 366.437073 252.179688 376.757813 C 246.981659 387.078491 244.382813 398.792297 244.382813 411.900391 C 244.382813 425.008423 246.981659 436.722229 252.179688 447.042969 C 257.377686 457.363647 264.608948 465.385986 273.875 471.111328 C 283.141052 476.83667 293.726196 479.699219 305.628906 479.699219 Z M 438.96875 410.996094 L 493.207031 410.996094 C 498.480377 410.544128 503.378418 408.812195 507.898438 405.798828 C 512.418457 402.785522 516.034119 398.716431 518.746094 393.59375 C 521.45813 388.471069 522.814453 382.59613 522.814453 375.966797 C 522.814453 367.378723 519.914001 360.259399 514.113281 354.609375 C 508.312622 348.959351 500.741791 346.134766 491.400391 346.134766 L 438.96875 346.134766 L 438.96875 410.996094 Z"/>
    <path id="Path" fill="none" stroke="#464866" stroke-width="12" stroke-linecap="round" d="M 334 540 L 745 540"/>
</svg>
